<svg xmlns="http://www.w3.org/2000/svg" xmlns:xlink="http://www.w3.org/1999/xlink" version="1.1" x="0px" y="0px" viewBox="0 0 100 125" style="enable-background:new 0 0 100 100;" xml:space="preserve"><g><path d="M39.891,46.137c0,6.195-4.648,11.217-10.382,11.217c-5.734,0-10.383-5.021-10.383-11.217S39.891,39.941,39.891,46.137z    M60.109,46.137c0,6.195,4.648,11.217,10.383,11.217s10.383-5.021,10.383-11.217S60.109,39.941,60.109,46.137z M100,50   c0,27.614-22.386,50-50,50S0,77.614,0,50S22.386,0,50,0S100,22.386,100,50z M92.5,50c0-12.039-9.98-21.799-22.291-21.799   c-8.945,0-31.472,0-40.417,0C17.48,28.201,7.5,37.961,7.5,50s9.98,21.799,22.292,21.799c8.945,0,13.402-12.589,20.208-12.589   s11.264,12.589,20.209,12.589C82.52,71.799,92.5,62.039,92.5,50z"/></g><text x="0" y="115" fill="#000000" font-size="5px" font-weight="bold" font-family="'Helvetica Neue', Helvetica, Arial-Unicode, Arial, Sans-serif">Created by b farias</text><text x="0" y="120" fill="#000000" font-size="5px" font-weight="bold" font-family="'Helvetica Neue', Helvetica, Arial-Unicode, Arial, Sans-serif">from the Noun Project</text></svg>