<?xml version="1.0" encoding="UTF-8"?>
<svg width="338px" height="338px" viewBox="0 0 338 338" version="1.1" xmlns="http://www.w3.org/2000/svg" xmlns:xlink="http://www.w3.org/1999/xlink">
    <!-- Generator: Sketch 44.1 (41455) - http://www.bohemiancoding.com/sketch -->
    <title>Shape</title>
    <desc>Created with Sketch.</desc>
    <defs></defs>
    <g id="Branding" stroke="none" stroke-width="1" fill="none" fill-rule="evenodd">
        <g id="logo" transform="translate(-36.000000, -36.000000)" fill="#2196F3">
            <g id="Group">
                <path d="M54.9038106,154.903703 C54.9038106,99.6752873 99.6750097,54.9038106 154.903703,54.9038106 L254.903918,54.9038106 C310.132334,54.9038106 354.903811,99.6750097 354.903811,154.903703 L354.903811,254.903918 C354.903811,310.132334 310.132611,354.903811 254.903918,354.903811 L154.903703,354.903811 C99.6752873,354.903811 54.9038106,310.132611 54.9038106,254.903918 L54.9038106,154.903703 Z M180.575686,118.720217 C160.19717,124.411623 142.725295,137.06592 130.942873,153.988967 L162.463576,153.988967 C164.313576,147.835061 166.52842,141.439748 169.090139,135.886232 C172.444045,128.613967 176.326076,122.994436 180.575686,118.720217 Z M124.778811,164.245217 C119.200686,175.527248 115.781936,187.32217 115.082326,200.142482 L155.858107,200.142482 C156.146389,187.835061 157.536623,175.527248 159.923732,164.245217 L124.778811,164.245217 Z M115.108107,210.399123 C115.866311,223.732717 119.350686,235.527248 124.993654,246.296389 L160.010451,246.296389 C157.595607,235.527248 156.182326,223.219436 155.869826,210.399123 L115.108107,210.399123 Z M131.225295,256.553029 C142.968264,273.476076 160.255764,285.847561 180.392482,291.517873 C176.201076,287.154592 172.375686,281.526076 169.089357,274.401857 C166.581154,268.963967 164.405764,263.219826 162.579201,256.553029 L131.225295,256.553029 Z M199.560842,294.177639 L199.560842,256.553029 L173.207326,256.553029 C179.636232,277.578811 189.817092,290.809279 199.560842,294.177639 Z M199.560842,246.296779 L199.560451,246.296779 L199.560451,210.399514 L166.125686,210.399514 C166.456936,223.732717 168.010842,236.040529 170.446779,246.296779 L199.560842,246.296779 Z M199.560842,200.142873 L199.560842,164.245607 L170.415529,164.245607 C167.891701,175.527639 166.421389,187.835061 166.118264,200.142873 L199.560842,200.142873 Z M199.560842,153.988967 L199.560842,116.353811 C191.868264,118.908498 184.31592,127.229592 178.318654,140.232717 C176.342873,144.516311 174.672561,149.373732 173.149904,153.988967 L199.560842,153.988967 Z M294.295607,200.142873 C293.595998,187.32217 290.177248,175.527248 284.599123,164.245607 L249.454201,164.245607 C251.841701,175.527639 253.231545,187.835061 253.519826,200.142873 L294.295607,200.142873 Z M278.435061,153.988967 C266.719826,137.578811 249.380764,124.502248 229.151467,118.764357 C233.221389,123.027248 236.958498,128.717873 240.288186,135.937014 C242.849904,141.490529 245.063967,147.835061 246.914357,153.988967 L278.435061,153.988967 Z M209.817092,116.463186 L209.816701,116.463186 L209.816701,153.988576 L236.227639,153.988576 C234.704982,149.373342 232.865529,144.51592 230.889748,140.232326 C224.979592,127.419045 217.509279,119.148732 209.817092,116.463186 Z M209.817092,164.245217 L209.817092,200.142482 L243.25967,200.142482 C242.956936,187.835061 241.485842,175.527248 238.962404,164.245217 L209.817092,164.245217 Z M209.817092,210.399123 L209.817092,246.296389 L238.930764,246.296389 C241.366701,236.040139 242.920607,223.732326 243.251857,210.399123 L209.817092,210.399123 Z M209.817092,294.066311 C220.073732,290.513576 229.813576,277.06592 236.170607,256.553029 L209.817092,256.553029 L209.817092,294.066311 Z M229.528029,291.413576 C249.433107,285.67217 266.515139,273.476076 278.152248,256.553029 L246.798342,256.553029 C244.971779,263.219826 242.796389,268.913186 240.288186,274.351076 C237.041311,281.390529 233.439357,287.070998 229.528029,291.413576 Z M284.384279,246.296779 C290.027248,235.527248 293.511623,223.732717 294.270217,210.399514 L253.508498,210.399514 C253.195998,223.219826 251.782326,235.527639 249.367873,246.296779 L284.384279,246.296779 Z" id="Shape" transform="translate(204.903811, 204.903811) rotate(-30.000000) translate(-204.903811, -204.903811) "></path>
            </g>
        </g>
    </g>
</svg>