<?xml version="1.0" encoding="UTF-8"?>
<svg width="750px" height="776px" viewBox="0 0 750 776" version="1.1" xmlns="http://www.w3.org/2000/svg" xmlns:xlink="http://www.w3.org/1999/xlink">
    <!-- Generator: Sketch 47.1 (45422) - http://www.bohemiancoding.com/sketch -->
    <title>Shape</title>
    <desc>Created with Sketch.</desc>
    <defs></defs>
    <g id="Icon" stroke="none" stroke-width="1" fill="none" fill-rule="evenodd">
        <g id="icon_white" transform="translate(-137.000000, -124.000000)" fill-rule="nonzero" fill="#009688">
            <path d="M724.616404,511.893983 C816.620344,496.045129 887,415.994986 887,319.424427 C887,211.705946 799.294054,124 691.575573,124 C612.599928,124 542.220272,172.755372 512,243.135029 C481.779728,172.755372 411.265759,124 332.424427,124 C224.705946,124 137,211.705946 137,319.424427 C137,415.860673 207.245344,496.045129 299.383596,511.893983 C207.245344,527.608524 137,607.79298 137,704.229226 C137,811.947708 224.705946,899.653653 332.424427,899.653653 C411.265759,899.653653 481.779728,850.898281 512,780.518625 C542.220272,850.763968 612.734241,899.653653 691.575573,899.653653 C799.294054,899.653653 887,811.947708 887,704.229226 C887,607.79298 816.754656,527.608524 724.616404,511.893983 Z M691.575573,589.392192 C754.836676,589.392192 806.412607,640.968123 806.412607,704.229226 C806.412607,767.49033 754.836676,819.066261 691.575573,819.066261 C628.31447,819.066261 576.738539,767.49033 576.738539,704.229226 C576.738539,640.968123 628.31447,589.392192 691.575573,589.392192 Z M530.132163,625.119269 C527.04298,625.656519 523.819484,626.059456 520.595989,626.193768 L520.327364,626.193768 C517.506805,626.32808 514.820559,626.596705 512,626.596705 C509.179441,626.596705 506.358883,626.32808 503.404011,626.193768 L503.269699,626.193768 C500.046203,625.925143 496.822708,625.522206 493.733524,625.119269 C493.599212,625.119269 493.330587,625.119269 493.196275,624.984957 C444.575215,616.926218 405.49033,577.572708 398.371777,528.145774 L397.565903,522.907593 C397.162966,519.28116 397.028653,515.520415 397.028653,511.75967 C397.028653,507.998926 397.297278,504.238181 397.565903,500.611748 L398.371777,495.373567 C405.49033,445.946633 444.575215,406.593123 493.196275,398.534384 C493.330587,398.534384 493.599212,398.534384 493.733524,398.400072 C496.822708,397.862822 500.046203,397.459885 503.269699,397.325573 L503.538324,397.325573 C506.358883,397.191261 509.045129,396.922636 511.865688,396.922636 C514.686246,396.922636 517.506805,397.191261 520.461676,397.325573 L520.595989,397.325573 C523.819484,397.594198 526.908668,397.997135 530.132163,398.400072 C530.266476,398.400072 530.5351,398.400072 530.669413,398.534384 C579.290473,406.593123 618.375358,445.946633 625.493911,495.373567 L626.299785,500.611748 C626.702722,504.238181 626.837034,507.998926 626.837034,511.75967 C626.837034,515.520415 626.56841,519.28116 626.299785,522.907593 L625.493911,528.145774 C618.375358,577.572708 579.290473,616.926218 530.669413,624.984957 C530.5351,624.984957 530.400788,624.984957 530.132163,625.119269 Z M447.261461,704.229226 C447.261461,767.49033 395.68553,819.066261 332.424427,819.066261 C269.163324,819.066261 217.587393,767.49033 217.587393,704.229226 C217.587393,640.968123 269.163324,589.392192 332.424427,589.392192 C395.68553,589.392192 447.261461,640.968123 447.261461,704.229226 Z M332.424427,434.261461 C269.163324,434.261461 217.587393,382.68553 217.587393,319.424427 C217.587393,256.163324 269.163324,204.587393 332.424427,204.587393 C395.68553,204.587393 447.261461,256.163324 447.261461,319.424427 C447.261461,382.68553 395.68553,434.261461 332.424427,434.261461 Z M370.300501,512.699857 C368.823066,512.431232 367.34563,512.162607 365.868195,511.893983 C367.34563,511.625358 368.823066,511.356734 370.300501,511.088109 C370.300501,511.356734 370.300501,511.625358 370.300501,511.893983 C370.300501,512.162607 370.300501,512.431232 370.300501,512.699857 Z M576.738539,319.424427 C576.738539,256.163324 628.31447,204.587393 691.575573,204.587393 C754.836676,204.587393 806.412607,256.163324 806.412607,319.424427 C806.412607,382.68553 754.836676,434.261461 691.575573,434.261461 C628.31447,434.261461 576.738539,382.68553 576.738539,319.424427 Z M653.699499,510.953797 C655.176934,511.222421 656.65437,511.491046 658.131805,511.75967 C656.65437,512.028295 655.176934,512.29692 653.699499,512.565544 C653.699499,512.29692 653.699499,512.028295 653.699499,511.75967 C653.699499,511.491046 653.699499,511.222421 653.699499,510.953797 Z M525.29692,293.233524 C537.922278,212.108883 609.510745,150.862464 691.575573,150.862464 C784.519699,150.862464 860.137536,226.480301 860.137536,319.424427 C860.137536,412.368553 784.519699,487.98639 691.575573,487.98639 C677.875716,487.98639 664.17586,486.24033 650.744628,482.882521 C648.461318,471.734599 644.700573,461.258238 639.86533,451.184814 C655.848496,457.497493 673.309097,461.123926 691.575573,461.123926 C769.745344,461.123926 833.275072,397.594198 833.275072,319.424427 C833.275072,241.254656 769.745344,177.724928 691.575573,177.724928 C613.405802,177.724928 549.876074,241.254656 549.876074,319.424427 C549.876074,341.183023 554.979943,361.598496 563.710244,379.999284 C553.905444,376.104226 543.563395,373.41798 532.81841,371.806232 C532.415473,371.806232 532.012536,371.67192 531.475287,371.537607 C528.78904,363.210244 526.640043,354.479943 525.29692,345.346705 L521.133238,319.558739 L525.29692,293.233524 Z M163.862464,319.424427 C163.862464,226.480301 239.480301,150.862464 332.424427,150.862464 C414.489255,150.862464 485.94341,212.108883 498.70308,293.233524 L502.866762,319.693052 L498.70308,345.346705 C497.225645,354.479943 495.076648,363.210244 492.390401,371.537607 C491.987464,371.537607 491.450215,371.67192 491.047278,371.806232 C480.302292,373.41798 469.960244,376.104226 460.155444,379.999284 C468.885745,361.598496 473.989613,341.048711 473.989613,319.424427 C474.123926,241.254656 410.594198,177.724928 332.424427,177.724928 C254.254656,177.724928 190.724928,241.254656 190.724928,319.424427 C190.724928,397.594198 254.254656,461.123926 332.424427,461.123926 C350.690903,461.123926 368.017192,457.497493 384.13467,451.184814 C379.433739,461.123926 375.672994,471.734599 373.255372,482.882521 C359.82414,486.24033 346.124284,487.98639 332.424427,487.98639 C239.480301,487.98639 163.862464,412.368553 163.862464,319.424427 Z M498.70308,730.420129 C485.94341,811.544771 414.489255,872.791189 332.424427,872.791189 C239.480301,872.791189 163.862464,797.173352 163.862464,704.229226 C163.862464,611.2851 239.480301,535.667264 332.424427,535.667264 C346.124284,535.667264 359.82414,537.413324 373.255372,540.771132 C375.538682,551.919054 379.299427,562.395415 384.13467,572.46884 C368.151504,566.15616 350.690903,562.529728 332.424427,562.529728 C254.254656,562.529728 190.724928,626.059456 190.724928,704.229226 C190.724928,782.398997 254.254656,845.928725 332.424427,845.928725 C410.594198,845.928725 474.123926,782.398997 474.123926,704.229226 C474.123926,682.47063 469.020057,662.055158 460.289756,643.65437 C470.094556,647.549427 480.436605,650.235673 491.18159,651.847421 C491.584527,651.847421 491.987464,651.981734 492.524713,652.116046 C495.21096,660.44341 497.359957,669.173711 498.837393,678.306948 L503.001074,703.960602 L498.70308,730.420129 Z M691.575573,872.791189 C609.510745,872.791189 537.922278,811.544771 525.29692,730.420129 L521.133238,703.960602 L525.29692,678.172636 C526.774355,669.039398 528.78904,660.309097 531.475287,651.981734 C531.878223,651.981734 532.28116,651.847421 532.81841,651.713109 C543.563395,650.101361 553.905444,647.415115 563.710244,643.520057 C554.979943,661.920845 549.876074,682.47063 549.876074,704.094914 C549.876074,782.264685 613.405802,845.794413 691.575573,845.794413 C769.745344,845.794413 833.275072,782.264685 833.275072,704.094914 C833.275072,625.925143 769.745344,562.395415 691.575573,562.395415 C673.309097,562.395415 655.982808,566.021848 639.86533,572.334527 C644.566261,562.395415 648.327006,551.784742 650.744628,540.636819 C664.17586,537.279011 677.875716,535.532951 691.575573,535.532951 C784.519699,535.532951 860.137536,611.150788 860.137536,704.094914 C860.137536,797.173352 784.519699,872.791189 691.575573,872.791189 Z" id="Shape"></path>
        </g>
    </g>
</svg>
