<?xml version="1.0" encoding="UTF-8"?>
<svg width="300px" height="300px" viewBox="0 0 300 300" version="1.1" xmlns="http://www.w3.org/2000/svg" xmlns:xlink="http://www.w3.org/1999/xlink">
    <!-- Generator: Sketch 46.2 (44496) - http://www.bohemiancoding.com/sketch -->
    <title>Shape</title>
    <desc>Created with Sketch.</desc>
    <defs></defs>
    <g id="Branding" stroke="none" stroke-width="1" fill="none" fill-rule="evenodd">
        <g id="logo" transform="translate(-50.000000, -55.000000)" fill="#2196F3">
            <g id="Group" transform="translate(50.000000, 55.000000)">
                <path d="M0,99.9998922 C0,44.7714768 44.7711992,0 99.9998922,0 L200.000108,0 C255.228523,0 300,44.7711992 300,99.9998922 L300,200.000108 C300,255.228523 255.228801,300 200.000108,300 L99.9998922,300 C44.7714768,300 0,255.228801 0,200.000108 L0,99.9998922 Z M125.671875,63.8164062 C105.293359,69.5078125 87.8214844,82.1621094 76.0390625,99.0851563 L107.559766,99.0851563 C109.409766,92.93125 111.624609,86.5359375 114.186328,80.9824219 C117.540234,73.7101563 121.422266,68.090625 125.671875,63.8164062 Z M69.875,109.341406 C64.296875,120.623438 60.878125,132.418359 60.1785156,145.238672 L100.954297,145.238672 C101.242578,132.93125 102.632812,120.623438 105.019922,109.341406 L69.875,109.341406 Z M60.2042969,155.495313 C60.9625,168.828906 64.446875,180.623438 70.0898438,191.392578 L105.106641,191.392578 C102.691797,180.623438 101.278516,168.315625 100.966016,155.495313 L60.2042969,155.495313 Z M76.3214844,201.649219 C88.0644531,218.572266 105.351953,230.94375 125.488672,236.614062 C121.297266,232.250781 117.471875,226.622266 114.185547,219.498047 C111.677344,214.060156 109.501953,208.316016 107.675391,201.649219 L76.3214844,201.649219 Z M144.657031,239.273828 L144.657031,201.649219 L118.303516,201.649219 C124.732422,222.675 134.913281,235.905469 144.657031,239.273828 Z M144.657031,191.392969 L144.656641,191.392969 L144.656641,155.495703 L111.221875,155.495703 C111.553125,168.828906 113.107031,181.136719 115.542969,191.392969 L144.657031,191.392969 Z M144.657031,145.239062 L144.657031,109.341797 L115.511719,109.341797 C112.987891,120.623828 111.517578,132.93125 111.214453,145.239062 L144.657031,145.239062 Z M118.246094,99.0851563 L144.657031,99.0851563 L144.657031,61.45 C136.964453,64.0046875 129.412109,72.3257813 123.414844,85.3289063 C121.439063,89.6125 119.76875,94.4699219 118.246094,99.0851563 Z M239.391797,145.239062 C238.692188,132.418359 235.273438,120.623437 229.695313,109.341797 L194.550391,109.341797 C196.937891,120.623828 198.327734,132.93125 198.616016,145.239062 L239.391797,145.239062 Z M223.53125,99.0851563 C211.816016,82.675 194.476953,69.5984375 174.247656,63.8605469 C178.317578,68.1234375 182.054688,73.8140625 185.384375,81.0332031 C187.946094,86.5867188 190.160156,92.93125 192.010547,99.0851563 L223.53125,99.0851563 Z M154.913281,61.559375 L154.912891,61.559375 L154.912891,99.0847656 L181.323828,99.0847656 C179.801172,94.4695312 177.961719,89.6121094 175.985938,85.3285156 C170.075781,72.5152344 162.605469,64.2449219 154.913281,61.559375 Z M154.913281,109.341406 L154.913281,145.238672 L188.355859,145.238672 C188.053125,132.93125 186.582031,120.623438 184.058594,109.341406 L154.913281,109.341406 Z M154.913281,155.495313 L154.913281,191.392578 L184.026953,191.392578 C186.462891,181.136328 188.016797,168.828516 188.348047,155.495313 L154.913281,155.495313 Z M154.913281,239.1625 C165.169922,235.609766 174.909766,222.162109 181.266797,201.649219 L154.913281,201.649219 L154.913281,239.1625 Z M174.624219,236.509766 C194.529297,230.768359 211.611328,218.572266 223.248438,201.649219 L191.894531,201.649219 C190.067969,208.316016 187.892578,214.009375 185.384375,219.447266 C182.1375,226.486719 178.535547,232.167187 174.624219,236.509766 Z M229.480469,191.392969 C235.123438,180.623437 238.607813,168.828906 239.366406,155.495703 L198.604688,155.495703 C198.292188,168.316016 196.878516,180.623828 194.464063,191.392969 L229.480469,191.392969 Z" id="Shape"></path>
            </g>
        </g>
    </g>
</svg>