<?xml version="1.0" encoding="UTF-8"?>
<svg width="301px" height="301px" viewBox="0 0 301 301" version="1.1" xmlns="http://www.w3.org/2000/svg" xmlns:xlink="http://www.w3.org/1999/xlink">
    <!-- Generator: Sketch 45.2 (43514) - http://www.bohemiancoding.com/sketch -->
    <title>Shape</title>
    <desc>Created with Sketch.</desc>
    <defs></defs>
    <g id="Branding" stroke="none" stroke-width="1" fill="none" fill-rule="evenodd">
        <g id="logo" transform="translate(-54.000000, -54.000000)" fill="#2196F3">
            <g id="Group" transform="translate(54.000000, 46.000000)">
                <path d="M0.903810568,108.903703 C0.903810568,53.6752873 45.6750097,8.90381057 100.903703,8.90381057 L200.903918,8.90381057 C256.132334,8.90381057 300.903811,53.6750097 300.903811,108.903703 L300.903811,208.903918 C300.903811,264.132334 256.132611,308.903811 200.903918,308.903811 L100.903703,308.903811 C45.6752873,308.903811 0.903810568,264.132611 0.903810568,208.903918 L0.903810568,108.903703 Z M126.575686,72.7202168 C106.19717,78.4116231 88.7252949,91.0659199 76.9428731,107.988967 L108.463576,107.988967 C110.313576,101.835061 112.52842,95.4397481 115.090139,89.8862324 C118.444045,82.6139668 122.326076,76.9944356 126.575686,72.7202168 Z M70.7788106,118.245217 C65.2006856,129.527248 61.7819356,141.32217 61.0823262,154.142482 L101.858107,154.142482 C102.146389,141.835061 103.536623,129.527248 105.923732,118.245217 L70.7788106,118.245217 Z M61.1081074,164.399123 C61.8663106,177.732717 65.3506856,189.527248 70.9936543,200.296389 L106.010451,200.296389 C103.595607,189.527248 102.182326,177.219436 101.869826,164.399123 L61.1081074,164.399123 Z M77.2252949,210.553029 C88.9682637,227.476076 106.255764,239.847561 126.392482,245.517873 C122.201076,241.154592 118.375686,235.526076 115.089357,228.401857 C112.581154,222.963967 110.405764,217.219826 108.579201,210.553029 L77.2252949,210.553029 Z M145.560842,248.177639 L145.560842,210.553029 L119.207326,210.553029 C125.636232,231.578811 135.817092,244.809279 145.560842,248.177639 Z M145.560842,200.296779 L145.560451,200.296779 L145.560451,164.399514 L112.125686,164.399514 C112.456936,177.732717 114.010842,190.040529 116.446779,200.296779 L145.560842,200.296779 Z M145.560842,154.142873 L145.560842,118.245607 L116.415529,118.245607 C113.891701,129.527639 112.421389,141.835061 112.118264,154.142873 L145.560842,154.142873 Z M119.149904,107.988967 L145.560842,107.988967 L145.560842,70.3538106 C137.868264,72.9084981 130.31592,81.2295918 124.318654,94.2327168 C122.342873,98.5163106 120.672561,103.373732 119.149904,107.988967 Z M240.295607,154.142873 C239.595998,141.32217 236.177248,129.527248 230.599123,118.245607 L195.454201,118.245607 C197.841701,129.527639 199.231545,141.835061 199.519826,154.142873 L240.295607,154.142873 Z M224.435061,107.988967 C212.719826,91.5788106 195.380764,78.5022481 175.151467,72.7643574 C179.221389,77.0272481 182.958498,82.7178731 186.288186,89.9370137 C188.849904,95.4905293 191.063967,101.835061 192.914357,107.988967 L224.435061,107.988967 Z M155.817092,70.4631856 L155.816701,70.4631856 L155.816701,107.988576 L182.227639,107.988576 C180.704982,103.373342 178.865529,98.5159199 176.889748,94.2323262 C170.979592,81.4190449 163.509279,73.1487324 155.817092,70.4631856 Z M155.817092,118.245217 L155.817092,154.142482 L189.25967,154.142482 C188.956936,141.835061 187.485842,129.527248 184.962404,118.245217 L155.817092,118.245217 Z M155.817092,164.399123 L155.817092,200.296389 L184.930764,200.296389 C187.366701,190.040139 188.920607,177.732326 189.251857,164.399123 L155.817092,164.399123 Z M155.817092,248.066311 C166.073732,244.513576 175.813576,231.06592 182.170607,210.553029 L155.817092,210.553029 L155.817092,248.066311 Z M175.528029,245.413576 C195.433107,239.67217 212.515139,227.476076 224.152248,210.553029 L192.798342,210.553029 C190.971779,217.219826 188.796389,222.913186 186.288186,228.351076 C183.041311,235.390529 179.439357,241.070998 175.528029,245.413576 Z M230.384279,200.296779 C236.027248,189.527248 239.511623,177.732717 240.270217,164.399514 L199.508498,164.399514 C199.195998,177.219826 197.782326,189.527639 195.367873,200.296779 L230.384279,200.296779 Z" id="Shape"></path>
            </g>
        </g>
    </g>
</svg>