<?xml version="1.0" encoding="UTF-8"?>
<svg width="270px" height="52px" viewBox="0 0 270 52" version="1.1" xmlns="http://www.w3.org/2000/svg" xmlns:xlink="http://www.w3.org/1999/xlink">
    <!-- Generator: Sketch 61.2 (89653) - https://sketch.com -->
    <title>logo-white</title>
    <desc>Created with Sketch.</desc>
    <g id="logo-white" stroke="none" stroke-width="1" fill="none" fill-rule="evenodd">
        <text id="ATOMERY" font-family="Futura-Bold, Futura" font-size="40" font-weight="bold" fill="#FFFFFF">
            <tspan x="61.06" y="42">ATOMERY</tspan>
        </text>
        <g id="iconfinder_professor_chemistry_chemical_3251995" fill="#FFFFFF" fill-rule="nonzero">
            <path d="M35.7885233,31.0820421 C34.4098899,33.4568916 32.1109482,35.1562779 29.4361852,35.7777143 C26.7614222,36.3991506 23.9487511,35.8873618 21.6643316,34.3635613 C17.7155623,31.7315345 12.5902117,31.6602535 8.56977384,34.1814483 L34.209052,50.9847894 C35.5177261,51.8423539 37.2194142,51.8052805 38.4894982,50.8915345 C39.7595821,49.9777885 40.335663,48.3761495 39.9385788,46.8627529 L35.7885233,31.0820421 Z M24.8898163,37.3473966 C25.1318151,37.3407776 25.3662053,37.4323052 25.5396813,37.601164 C25.7131573,37.7700227 25.8109732,38.0018591 25.810886,38.2439483 C25.8116613,38.5647733 25.6409499,38.8615611 25.3632363,39.0221986 C25.0855227,39.1828361 24.7431406,39.1828361 24.465427,39.0221986 C24.1877134,38.8615611 24.017002,38.5647733 24.0177773,38.2439483 C24.0175997,37.758215 24.4042646,37.3606798 24.8898163,37.3473966 L24.8898163,37.3473966 Z M32.43346,37.7746591 C32.6754586,37.76804 32.9098486,37.8595676 33.0833244,38.0284264 C33.2568001,38.1972853 33.3546156,38.4291217 33.3545258,38.6712108 C33.3548764,38.9917518 33.1840714,39.2880943 32.9065331,39.4484662 C32.6289948,39.6088382 32.2869522,39.6088382 32.0094139,39.4484662 C31.7318756,39.2880943 31.5610706,38.9917518 31.5614212,38.6712108 C31.5612405,38.1854763 31.9479071,37.7879403 32.43346,37.7746591 Z M31.0851305,42.4675479 C31.3271291,42.4609287 31.5615192,42.5524563 31.734995,42.7213152 C31.9084708,42.890174 32.0062862,43.1220105 32.0061958,43.3640997 C32.0063239,43.6844922 31.8354701,43.9806019 31.5580234,44.1408351 C31.2805767,44.3010684 30.9387113,44.3010684 30.6612645,44.1408351 C30.3838178,43.9806019 30.2129641,43.6844922 30.2130922,43.3640997 C30.2129107,42.8783651 30.5995775,42.4808289 31.0851305,42.4675479 Z" id="path8445"></path>
            <path d="M20.4252323,4.37381726 C22.7166758,3.32310542 25.3925833,3.56014853 27.4636406,4.99730899 C27.8704881,5.27925371 28.4288411,5.17819413 28.7110537,4.7715324 C28.9932663,4.36487068 28.8925744,3.80645123 28.4860986,3.52397092 C25.8945311,1.72509459 22.5458171,1.42801674 19.6780445,2.74257313 C19.2278876,2.94896805 19.0302294,3.48116999 19.2365286,3.93137076 C19.4428277,4.38157154 19.9749876,4.57934297 20.4252323,4.37313955 L20.4252323,4.37381726 Z" id="path8429"></path>
            <path d="M25.205462,9.10489962 C25.5663244,9.44371229 26.1334774,9.42600365 26.4724994,9.06533797 C26.8115214,8.70467229 26.7941419,8.13750903 26.433673,7.79827782 C24.9123878,6.36855641 22.5823766,6.24263849 20.9158721,7.50008612 C20.5284813,7.80073736 20.4545076,8.35684026 20.7498317,8.74830735 C21.0451558,9.13977443 21.6001948,9.22134799 21.9956649,8.93140627 C22.9657514,8.20067204 24.3211921,8.27507995 25.205462,9.10761046 L25.205462,9.10489962 Z" id="path8431"></path>
            <path d="M41.1230372,42.0876122 C44.315524,42.6000561 47.5653458,41.605029 49.9236697,39.3930436 C50.2848575,39.0543125 50.3030624,38.4869162 49.9643314,38.1257283 C49.6256004,37.7645404 49.0582041,37.7463355 48.6970161,38.0850664 C46.7435146,39.9172021 44.0516227,40.7413007 41.4072599,40.3167601 C40.9185535,40.2388862 40.4591418,40.5716155 40.3807179,41.060234 C40.302294,41.5488524 40.6345059,42.0086384 41.1230358,42.0876122 L41.1230372,42.0876122 Z" id="path8433"></path>
            <path d="M45.7068928,34.9601529 C44.5282858,35.7995144 43.0376071,36.0716643 41.6384392,35.7029213 C41.1595933,35.576879 40.669217,35.862807 40.5430491,36.3416197 C40.4168813,36.8204325 40.7026807,37.3108838 41.1814604,37.4371771 C43.0954706,37.9416736 45.1346949,37.5694544 46.7470458,36.4212922 C47.1505282,36.1340688 47.2447749,35.5741411 46.9575515,35.1706586 C46.6703281,34.7671762 46.1104004,34.6729295 45.7069179,34.9601529 L45.7068928,34.9601529 Z" id="path8435"></path>
            <path d="M2.69125037,28.1837466 C2.00257832,27.7328138 1.66307417,26.9040745 1.83744543,26.0995844 C2.01181669,25.2950943 2.66398691,24.6812981 3.47756134,24.5559735 L24.6796342,21.2819642 L33.9520541,7.13480129 C34.494794,6.30658197 34.2634473,5.19520745 33.4353014,4.65235541 C33.0755103,4.40838839 32.9780384,3.92086237 33.2163676,3.55731212 C33.4546968,3.19376188 33.9406443,3.08870261 34.3078652,3.32133611 L45.3757177,10.5755269 C45.7355657,10.8194736 45.8330738,11.3070428 45.5947241,11.6706221 C45.3563743,12.0342015 44.8703722,12.1392419 44.5031485,11.9065462 C43.6753344,11.3633603 42.5639345,11.5939373 42.0205251,12.4216045 L32.7480983,26.5680898 L33.855562,30.7793698 C34.3943989,30.0134032 34.7972769,29.1603483 35.0465274,28.2576168 L34.6851733,26.8839019 L43.5201812,13.4042817 C44.7157813,14.1812353 46.3145471,13.845204 47.0961968,12.6526689 C47.8778464,11.4601337 47.5481056,9.86005878 46.3586538,9.07372504 L35.2908155,1.81953429 C34.0952007,1.04218562 32.4960859,1.37809987 31.7143098,2.57082443 C30.9325338,3.76354899 31.262517,5.36389825 32.4523349,6.15009098 L23.6173283,19.6297111 L3.2038234,22.7824106 C1.65736293,23.0215237 0.41799387,24.1885674 0.0864377999,25.7178763 C-0.24511827,27.2471852 0.399657661,28.8227139 1.70824301,29.6808045 L6.94203584,33.1113644 C7.48184399,32.7272043 8.04851887,32.3822688 8.63769615,32.0792145 L2.69125037,28.1837466 Z" id="path8443"></path>
        </g>
    </g>
</svg>